<svg width="127" height="30" viewBox="0 0 127 30" fill="none" xmlns="http://www.w3.org/2000/svg">
<path d="M12.0998 19.6882L10.1868 21.1099C10.1868 21.1099 10.9403 20.7991 12.9641 19.3035C15.7168 22.4823 18.4172 25.7042 21.0622 28.9691C19.3675 29.6338 17.5252 30 15.5937 30C11.5185 30 7.82158 28.3721 5.12117 25.7319C3.71868 24.3656 2.58684 22.7254 1.80563 20.9006C1.03057 19.0881 0.599976 17.0941 0.599976 14.9985C0.599976 12.3459 1.28892 9.85332 2.49765 7.6931C3.4634 5.96061 4.7644 4.44046 6.31144 3.21879C8.86423 1.2032 12.0906 0 15.5937 0C18.4787 0 21.173 0.815468 23.4582 2.22484C20.2103 5.24362 16.907 8.21007 13.5515 11.115C12.0783 12.392 10.5958 13.6599 9.10413 14.9092C6.6959 16.9371 2.22699 20.3682 2.22699 20.3682L8.23372 17.3402L3.44802 20.6944L9.62391 17.688L3.74328 21.6515L9.03646 18.9004L5.58252 21.5314L9.87304 19.0881L6.31452 22.1315L10.0914 19.9928L7.45251 22.0638L11.8538 19.2543L8.79656 21.6176L12.0998 19.6882Z" fill="#B82832"/>
<path d="M17.4114 15.5093C20.9115 12.472 24.3562 9.37942 27.7456 6.22218C29.5326 8.69012 30.5844 11.7212 30.5844 14.9985C30.5844 19.2358 28.8282 23.0608 26.0048 25.7873C23.2029 22.3131 20.3364 18.8881 17.4114 15.5093Z" fill="#B82832"/>
<path d="M64.9419 9.90369L58.0766 16.6494L57.3253 20.0963H54.5274L55.2602 16.6494L51.3335 10.0048L44.0018 15.0217L49.2831 20.0927H45.1491L40.7339 15.8987L39.8161 20.0927H36.9515L39.1832 9.90369H42.0329L41.1669 13.9028L46.8331 9.90369H54.7568L57.107 14.0002L61.2594 9.90369H64.9419ZM76.674 12.6828L75.6562 17.3641C75.2898 19.0532 73.9056 20.0927 71.9552 20.0927H66.1558C64.2387 20.0927 63.2728 19.0532 63.6392 17.3641L64.6569 12.6828C65.0418 10.9287 66.4075 9.90369 68.3727 9.90369H74.1869C76.1188 9.90369 77.0552 10.9287 76.6703 12.6828H76.674ZM72.9249 12.4049H68.5429C67.8583 12.4049 67.5104 12.6828 67.3586 13.3L66.6258 16.6964C66.4926 17.2666 66.7591 17.5734 67.3586 17.5734H71.8738C72.5252 17.5734 72.825 17.328 72.9582 16.6964L73.7095 13.3C73.8427 12.6648 73.6096 12.4049 72.9249 12.4049ZM78.5429 12.6828L77.5252 17.3641C77.1588 19.0713 78.1247 20.0927 80.0566 20.0927H88.8723L90.1233 14.3864H87.2402L86.5407 17.5734H81.2743C80.6562 17.5734 80.3897 17.2486 80.5082 16.6639L81.241 13.3325C81.3742 12.6828 81.7591 12.4049 82.5252 12.4049H90.2232L90.7746 9.90369H82.2587C80.3268 9.90369 78.9241 10.9287 78.5429 12.6828ZM104.394 12.6828L103.376 17.3641C103.01 19.0532 101.626 20.0927 99.6755 20.0927H93.876C91.9589 20.0927 90.993 19.0532 91.3594 17.3641L92.3772 12.6828C92.7621 10.9287 94.1277 9.90369 96.0929 9.90369H101.907C103.839 9.90369 104.775 10.9287 104.39 12.6828H104.394ZM100.645 12.4049H96.2632C95.5785 12.4049 95.2306 12.6828 95.0788 13.3L94.3461 16.6964C94.2128 17.2666 94.4793 17.5734 95.0788 17.5734H99.594C100.245 17.5734 100.545 17.328 100.678 16.6964L101.43 13.3C101.563 12.6648 101.33 12.4049 100.645 12.4049ZM109.05 16.469C108.883 17.2341 108.384 17.6384 107.533 17.6384H104.342L103.809 20.0927H108.099C110.064 20.0927 111.2 19.2626 111.567 17.5409L113.228 9.90369H110.479L109.046 16.469H109.05ZM126.519 12.6828L125.501 17.3641C125.134 19.0532 123.75 20.0927 121.8 20.0927H116C114.083 20.0927 113.117 19.0532 113.484 17.3641L114.502 12.6828C114.886 10.9287 116.252 9.90369 118.217 9.90369H124.032C125.963 9.90369 126.9 10.9287 126.515 12.6828H126.519ZM122.769 12.4049H118.388C117.703 12.4049 117.355 12.6828 117.203 13.3L116.47 16.6964C116.337 17.2666 116.604 17.5734 117.203 17.5734H121.718C122.37 17.5734 122.67 17.328 122.803 16.6964L123.554 13.3C123.687 12.6648 123.454 12.4049 122.769 12.4049Z" fill="#B82832"/>
</svg>
